<svg width="25" height="25" viewBox="0 0 25 25" fill="none" xmlns="http://www.w3.org/2000/svg">
<path d="M17 11H16.5H16.3333H15.6667V8.84615C15.6667 6.74615 13.6 5.07692 11 5.07692C8.4 5.07692 6.33333 6.74615 6.33333 8.84615V11H5V8.84615C5 6.15385 7.66667 4 11 4C14.3333 4 17 6.15385 17 8.84615V11Z" fill="#C1B7B0"/>
<path d="M16.0909 20H5.90909C4.82727 20 4 19.2778 4 18.3333V11.6667C4 10.7222 4.82727 10 5.90909 10H16.0909C17.1727 10 18 10.7222 18 11.6667V18.3333C18 19.2778 17.1727 20 16.0909 20ZM5.90909 11.1111C5.52727 11.1111 5.27273 11.3333 5.27273 11.6667V18.3333C5.27273 18.6667 5.52727 18.8889 5.90909 18.8889H16.0909C16.4727 18.8889 16.7273 18.6667 16.7273 18.3333V11.6667C16.7273 11.3333 16.4727 11.1111 16.0909 11.1111H5.90909Z" fill="#C1B7B0"/>
<path d="M11 15C11.5523 15 12 14.5523 12 14C12 13.4477 11.5523 13 11 13C10.4477 13 10 13.4477 10 14C10 14.5523 10.4477 15 11 15Z" fill="#C1B7B0"/>
<path d="M11.25 14H10.75L10.25 17H11.75L11.25 14Z" fill="#C1B7B0"/>
</svg>
