<svg width="17" height="14" viewBox="0 0 17 14" fill="none" xmlns="http://www.w3.org/2000/svg">
<path d="M3.16667 0.666672H14C14.663 0.666672 15.2989 0.930064 15.7678 1.3989C16.2366 1.86775 16.5 2.50363 16.5 3.16667V10.6667C16.5 11.3297 16.2366 11.9656 15.7678 12.4344C15.2989 12.9033 14.663 13.1667 14 13.1667H3.16667C2.50363 13.1667 1.86775 12.9033 1.3989 12.4344C0.930064 11.9656 0.666672 11.3297 0.666672 10.6667V3.16667C0.666672 2.50363 0.930064 1.86775 1.3989 1.3989C1.86775 0.930064 2.50363 0.666672 3.16667 0.666672ZM3.16667 1.50001C2.77565 1.49935 2.39696 1.63689 2.09751 1.88834L8.58334 6.10001L15.0692 1.88834C14.7696 1.63702 14.391 1.49949 14 1.50001H3.16667ZM8.58334 7.09334L1.61167 2.56667C1.53774 2.75807 1.49988 2.96149 1.50001 3.16667V10.6667C1.50001 11.1087 1.6756 11.5326 1.98816 11.8452C2.30072 12.1577 2.72464 12.3333 3.16667 12.3333H14C14.442 12.3333 14.866 12.1577 15.1785 11.8452C15.4911 11.5326 15.6667 11.1087 15.6667 10.6667V3.16667C15.6667 2.955 15.6275 2.75251 15.555 2.56667L8.58334 7.09251V7.09334Z" fill="#4D321E" fill-opacity="0.35"/>
</svg>
